# Blender v2.78 (sub 0) OBJ File: ''
# www.blender.org
mtllib lowpolytree.mtl
o Cylinder
v -0.018886 1.182109 -0.373037
v 0.161257 0.587880 -0.198870
v -0.018886 0.587880 -0.264436
v 0.231064 1.182109 -0.282063
v 0.257109 0.587880 -0.032850
v 0.317871 1.182109 0.210242
v 0.223820 0.587880 0.155942
v 0.114110 1.182109 0.381218
v 0.076966 0.587880 0.279167
v -0.151881 1.182109 0.381218
v -0.114738 0.587880 0.279166
v -0.355642 1.182109 0.210242
v -0.261591 0.587880 0.155942
v -0.294880 0.587880 -0.032850
v -0.199028 0.587880 -0.198870
v -0.268836 1.182109 -0.282063
v 0.231064 0.006663 -0.282063
v -0.355642 0.006663 0.210242
v -0.401831 0.006663 -0.051708
v -0.268836 0.006663 -0.282063
v -0.018886 0.006663 -0.373037
v -0.151881 0.006663 0.381218
v 0.114110 0.006663 0.381218
v 0.317871 0.006663 0.210242
v 0.364060 0.006663 -0.051708
v 0.364060 1.182109 -0.051708
v -0.401831 1.182109 -0.051708
v 0.019167 5.129304 0.022686
v 0.199847 4.368638 -0.186952
v 0.015674 4.368637 -0.253986
v 0.033842 5.129304 0.034999
v 0.292234 4.305311 -0.023413
v 0.263809 4.368637 0.175798
v 0.032072 5.129304 0.045037
v 0.113670 4.368637 0.301780
v 0.014070 5.129304 0.051589
v -0.087932 4.305311 0.295584
v -0.232462 4.368637 0.175798
v 0.004492 5.129304 0.034999
v -0.266496 4.368637 -0.017217
v 0.024263 5.129304 0.051589
v 0.009589 5.129304 0.026172
v -0.174109 4.305311 -0.193148
v 0.979368 0.898750 -0.113076
v -0.353069 1.029501 0.994068
v -0.005440 1.092827 -0.939428
v -1.162461 0.847417 -0.150182
v -0.569643 1.385557 -0.618026
v -0.766733 0.784091 -0.851516
v -0.006855 0.847417 -1.119851
v -1.023078 0.847417 0.640299
v -0.862932 1.448883 -0.094124
v -0.306797 1.385557 0.872648
v -0.413802 0.784091 1.150053
v 0.394483 0.847417 1.156250
v 1.009368 0.847417 0.640300
v 0.296607 1.448883 0.878845
v 0.858351 1.448883 -0.094124
v 1.143143 0.784091 -0.156378
v 0.747414 0.847417 -0.845319
v -0.002290 1.448883 -0.816288
v -0.470645 3.595132 -0.047718
v -0.106769 4.355401 -0.103204
v -0.309076 3.531805 -0.343475
v 0.010725 3.595132 -0.451635
v -0.412585 3.595132 0.281558
v -0.162981 4.418728 0.010068
v -0.052405 4.355401 0.205109
v -0.162062 3.531806 0.490282
v 0.177903 3.595132 0.496478
v 0.434034 3.595132 0.281558
v 0.076845 4.418728 0.211305
v 0.193029 4.418728 0.010068
v 0.486486 3.531805 -0.053915
v 0.324917 3.595132 -0.337279
v 0.015024 4.418728 -0.139296
v 0.010529 3.647679 -0.315061
v 0.463775 2.744969 -0.504165
v 0.005286 2.744969 -0.671042
v 0.365764 3.647679 -0.016983
v 0.702124 2.681642 -0.087815
v 0.623007 2.744969 0.398883
v 0.133901 3.647679 0.384616
v 0.249243 2.744969 0.712509
v -0.118452 3.584353 0.378420
v -0.244281 2.681643 0.706312
v -0.612436 2.744969 0.398883
v -0.344706 3.647679 -0.016983
v -0.697161 2.744969 -0.081619
v -0.226943 3.584352 -0.236866
v -0.458813 2.681643 -0.510362
v -0.864248 1.981114 -0.105654
v -0.359524 2.733704 -0.384325
v -0.569569 1.917788 -0.631965
v 0.000399 1.981114 -0.831178
v -0.759959 1.981115 0.485799
v -0.545192 2.797031 -0.046827
v -0.191317 2.733704 0.569622
v -0.305499 1.917788 0.865646
v 0.300687 1.981115 0.871843
v 0.760756 1.981114 0.485799
v 0.196847 2.797031 0.575818
v 0.556331 2.797031 -0.046827
v 0.859436 1.917788 -0.111850
v 0.564756 1.981115 -0.625769
v 0.005569 2.797031 -0.508971
v 0.001149 2.038788 -0.681816
v 0.669916 1.389330 -0.752068
v -0.003388 1.389329 -0.997131
v 0.726197 2.038788 -0.073428
v 1.022565 1.326003 -0.137744
v 0.903752 1.389330 0.574081
v 0.252955 2.038789 0.746250
v 0.354870 1.389330 1.034648
v -0.256267 1.975462 0.740054
v -0.367254 1.326003 1.028452
v -0.910528 1.389330 0.574081
v -0.723899 2.038788 -0.073428
v -1.034949 1.389329 -0.131548
v -0.477702 1.975462 -0.515766
v -0.682301 1.326003 -0.758265
v -0.141511 4.418728 0.131830
v 0.171559 4.418728 0.131830
v 0.131209 4.418728 -0.097008
v 0.242392 3.647679 -0.230669
v 0.322917 3.647679 0.226012
v -0.301860 3.647679 0.226012
v -0.478762 2.797031 0.329916
v 0.489901 2.797031 0.329917
v 0.365054 2.797031 -0.378129
v 0.474390 2.038789 -0.509570
v 0.638746 2.038789 0.422534
v -0.636448 2.038789 0.422534
v -0.759126 1.448883 0.494589
v 0.754545 1.448883 0.494589
v 0.559453 1.448883 -0.611830
v 0.637348 1.092827 -0.705472
v 0.860586 0.898750 0.560572
v 0.336580 1.092827 1.000265
v -0.871465 0.898750 0.560572
v -0.990247 0.898750 -0.113076
v -0.653837 0.835423 -0.711668
v 0.028745 5.129304 0.026172
v 0.006262 5.129304 0.045037
vn 0.3371 -0.1693 -0.9261
vn 0.8535 -0.1693 -0.4928
vn 0.9706 -0.1693 0.1711
vn 0.6335 -0.1693 0.7550
vn -0.0000 -0.1693 0.9856
vn -0.6335 -0.1693 0.7550
vn -0.9706 -0.1693 0.1711
vn -0.0000 1.0000 0.0000
vn -0.3371 -0.1693 -0.9261
vn -0.8535 -0.1693 -0.4928
vn -0.0000 -1.0000 -0.0000
vn -0.8530 0.1729 -0.4925
vn -0.3369 0.1729 -0.9255
vn -0.9700 0.1729 0.1710
vn -0.6331 0.1729 0.7545
vn -0.0000 0.1729 0.9849
vn 0.6331 0.1729 0.7545
vn 0.9700 0.1729 0.1710
vn 0.8530 0.1729 -0.4925
vn 0.3369 0.1729 -0.9255
vn 0.3238 0.3221 -0.8896
vn 0.8751 0.3014 -0.3786
vn 0.8292 0.3156 -0.4613
vn 0.8754 0.3013 -0.3779
vn 0.9389 0.3111 0.1474
vn 0.9541 0.2964 0.0429
vn 0.9542 0.2962 0.0420
vn 0.6108 0.3112 0.7280
vn 0.6109 0.3112 0.7280
vn -0.1211 0.2958 0.9475
vn -0.0176 0.3103 0.9505
vn -0.1220 0.2957 0.9475
vn -0.5989 0.3144 0.7365
vn -0.5277 0.3007 0.7944
vn -0.5271 0.3006 0.7949
vn -0.9327 0.3210 0.1645
vn -0.3321 0.3237 -0.8860
vn -0.3833 0.3165 -0.8677
vn -0.3837 0.3165 -0.8675
vn -0.7885 0.3163 -0.5274
vn -0.8150 0.3232 -0.4809
vn -0.7883 0.3162 -0.5278
vn -0.0956 -0.9908 -0.0962
vn 0.0527 -0.9973 0.0520
vn 0.0902 -0.9956 -0.0271
vn -0.7667 0.4307 -0.4761
vn -0.7667 0.4310 -0.4758
vn -0.7670 0.4346 -0.4720
vn -0.3357 0.4303 -0.8379
vn -0.3360 0.4300 -0.8380
vn -0.3319 0.4339 -0.8376
vn -0.8898 0.4285 0.1569
vn -0.5510 0.4228 0.7195
vn -0.5509 0.4225 0.7197
vn -0.5534 0.4280 0.7146
vn -0.0461 0.4181 0.9072
vn -0.0456 0.4186 0.9070
vn -0.0402 0.4244 0.9046
vn 0.5844 0.4163 0.6965
vn 0.9072 0.3971 0.1387
vn 0.9071 0.3973 0.1388
vn 0.9163 0.3810 0.1236
vn 0.8015 0.4035 -0.4414
vn 0.8014 0.4036 -0.4415
vn 0.8138 0.3891 -0.4317
vn 0.3093 0.4266 -0.8499
vn -0.7892 0.3404 -0.5112
vn -0.7683 0.3276 -0.5499
vn -0.7919 0.3421 -0.5058
vn -0.4089 0.3272 -0.8519
vn -0.3669 0.3401 -0.8659
vn -0.3611 0.3418 -0.8676
vn -0.9279 0.3351 0.1636
vn -0.4821 0.3107 0.8192
vn -0.5433 0.3348 0.7699
vn -0.5507 0.3376 0.7634
vn -0.0910 0.3322 0.9388
vn -0.1706 0.3071 0.9363
vn -0.0796 0.3356 0.9386
vn 0.6078 0.3254 0.7244
vn 0.9350 0.3223 0.1478
vn 0.9463 0.3087 0.0964
vn 0.9474 0.3070 0.0902
vn 0.8507 0.3140 -0.4216
vn 0.8257 0.3263 -0.4602
vn 0.8536 0.3125 -0.4169
vn 0.3224 0.3342 -0.8857
vn 0.3209 0.3458 -0.8817
vn 0.8372 0.3273 -0.4381
vn 0.8218 0.3371 -0.4593
vn 0.8413 0.3246 -0.4322
vn 0.9309 0.3337 0.1484
vn 0.9390 0.3226 0.1194
vn 0.9410 0.3195 0.1114
vn 0.6047 0.3390 0.7207
vn -0.0648 0.3444 0.9366
vn -0.0921 0.3331 0.9384
vn -0.0564 0.3478 0.9359
vn -0.5407 0.3370 0.7707
vn -0.5590 0.3474 0.7529
vn -0.5641 0.3502 0.7477
vn -0.9230 0.3487 0.1627
vn -0.3680 0.3448 -0.8635
vn -0.3532 0.3509 -0.8673
vn -0.3488 0.3527 -0.8683
vn -0.7926 0.3519 -0.4980
vn -0.7864 0.3458 -0.5119
vn -0.7944 0.3537 -0.4938
vn -0.7962 0.3517 -0.4924
vn -0.7946 0.3489 -0.4968
vn -0.7974 0.3537 -0.4890
vn -0.3516 0.3479 -0.8691
vn -0.3470 0.3506 -0.8699
vn -0.3434 0.3526 -0.8705
vn -0.9228 0.3491 0.1627
vn -0.5630 0.3416 0.7526
vn -0.5681 0.3461 0.7466
vn -0.5718 0.3493 0.7423
vn -0.0523 0.3425 0.9381
vn -0.0607 0.3376 0.9393
vn -0.0458 0.3464 0.9370
vn 0.6048 0.3385 0.7208
vn 0.9323 0.3301 0.1478
vn 0.9376 0.3214 0.1325
vn 0.9411 0.3154 0.1220
vn 0.8321 0.3267 -0.4483
vn 0.8230 0.3343 -0.4592
vn 0.8380 0.3215 -0.4409
vn 0.3209 0.3461 -0.8816
vn 0.3114 0.4133 -0.8557
vn 0.8085 0.3903 -0.4405
vn 0.8047 0.3942 -0.4440
vn 0.8188 0.3793 -0.4309
vn 0.9108 0.3884 0.1398
vn 0.9133 0.3842 0.1349
vn 0.9204 0.3718 0.1206
vn 0.5881 0.4035 0.7009
vn -0.0506 0.4058 0.9125
vn -0.0523 0.4044 0.9131
vn -0.0439 0.4117 0.9103
vn -0.5506 0.4084 0.7281
vn -0.5515 0.4099 0.7265
vn -0.5547 0.4150 0.7211
vn -0.8960 0.4150 0.1580
vn -0.3414 0.4160 -0.8429
vn -0.3402 0.4169 -0.8429
vn -0.3358 0.4205 -0.8429
vn -0.7709 0.4176 -0.4810
vn -0.7707 0.4166 -0.4822
vn -0.7716 0.4211 -0.4767
vn 0.1976 -0.8449 0.4971
vn 0.1723 -0.8739 0.4545
vn 0.2362 -0.7935 0.5608
vn 0.4213 -0.8671 0.2660
vn 0.4542 -0.8406 0.2951
vn 0.5115 -0.7864 0.3464
vn 0.4511 -0.8889 -0.0795
vn 0.0287 -0.8331 -0.5523
vn 0.0410 -0.7918 -0.6093
vn 0.0601 -0.7179 -0.6935
vn 0.3501 -0.7969 -0.4923
vn 0.3187 -0.8437 -0.4320
vn 0.3855 -0.7318 -0.5620
vn -0.3049 -0.8804 -0.3633
vn -0.6514 -0.7571 0.0494
vn -0.6106 -0.7916 0.0215
vn -0.4465 -0.8913 -0.0787
vn -0.6167 -0.7704 0.1620
vn -0.6230 -0.7571 0.1964
vn -0.6421 -0.6711 0.3707
vn -0.1439 -0.9072 0.3954
vn -0.1295 -0.9255 0.3559
vn -0.5099 -0.8472 0.1488
vn -0.5582 -0.7902 0.2529
vn -0.5938 -0.7279 0.3428
vn -0.6300 -0.7765 0.0074
vn -0.5134 -0.8575 -0.0335
vn -0.3976 -0.9149 -0.0701
vn -0.2691 -0.9081 -0.3207
vn 0.2105 -0.8683 -0.4491
vn 0.1871 -0.9027 -0.3873
vn 0.2240 -0.8452 -0.4852
vn 0.1056 -0.9009 -0.4211
vn 0.1263 -0.8681 -0.4801
vn 0.1400 -0.8433 -0.5188
vn 0.3987 -0.9144 -0.0703
vn 0.2872 -0.9185 0.2718
vn 0.3209 -0.8949 0.3102
vn 0.3447 -0.8759 0.3375
vn 0.2474 -0.8956 0.3698
vn 0.2138 -0.9202 0.3279
vn 0.2693 -0.8775 0.3969
vn 0.2303 -0.9285 0.2914
vn 0.1983 -0.9460 0.2563
vn 0.2447 -0.9196 0.3072
vn 0.2185 -0.9456 0.2409
vn 0.2466 -0.9286 0.2773
vn 0.2602 -0.9194 0.2949
vn 0.3356 -0.9401 -0.0592
vn 0.1106 -0.9359 -0.3345
vn 0.1315 -0.9137 -0.3846
vn 0.1411 -0.9022 -0.4076
vn 0.1466 -0.9133 -0.3799
vn 0.1297 -0.9364 -0.3261
vn 0.1536 -0.9024 -0.4026
vn -0.2263 -0.9360 -0.2697
vn -0.5750 -0.8181 -0.0096
vn -0.4250 -0.9042 -0.0420
vn -0.3368 -0.9397 -0.0594
vn -0.4193 -0.8985 0.1298
vn -0.4988 -0.8301 0.2492
vn -0.5353 -0.7861 0.3090
vn -0.1107 -0.9462 0.3041
vn -0.1302 -0.9247 0.3577
vn -0.4441 -0.8812 0.1619
vn -0.5499 -0.7816 0.2946
vn -0.5790 -0.7437 0.3343
vn -0.6439 -0.7641 -0.0390
vn -0.4651 -0.8830 -0.0623
vn -0.3965 -0.9154 -0.0699
vn -0.2660 -0.9104 -0.3170
vn 0.1127 -0.8920 -0.4378
vn 0.1019 -0.9146 -0.3914
vn 0.1156 -0.8853 -0.4505
vn 0.1735 -0.9151 -0.3640
vn 0.1944 -0.8935 -0.4049
vn 0.2005 -0.8866 -0.4169
vn 0.3927 -0.9170 -0.0692
vn 0.2125 -0.9282 0.3054
vn 0.2341 -0.9114 0.3385
vn 0.2407 -0.9059 0.3486
vn 0.2949 -0.9103 0.2905
vn 0.2653 -0.9276 0.2629
vn 0.3034 -0.9049 0.2984
vn 0.2569 -0.9328 0.2529
vn 0.2303 -0.9461 0.2276
vn 0.2648 -0.9285 0.2605
vn 0.1839 -0.9465 0.2653
vn 0.2039 -0.9334 0.2953
vn 0.2102 -0.9290 0.3047
vn 0.3381 -0.9392 -0.0596
vn 0.1482 -0.9386 -0.3115
vn 0.1665 -0.9225 -0.3483
vn 0.1720 -0.9172 -0.3595
vn 0.0973 -0.9215 -0.3760
vn 0.0873 -0.9383 -0.3346
vn 0.1001 -0.9163 -0.3877
vn -0.2282 -0.9348 -0.2720
vn -0.5720 -0.8196 -0.0342
vn -0.4037 -0.9133 -0.0540
vn -0.3421 -0.9377 -0.0603
vn -0.3866 -0.9113 0.1414
vn -0.4898 -0.8312 0.2630
vn -0.5192 -0.8003 0.2998
vn -0.1133 -0.9435 0.3114
vn -0.2817 -0.5673 0.7738
vn -0.7595 -0.5864 0.2817
vn -0.5850 -0.7748 0.2396
vn -0.8004 -0.5244 0.2903
vn -0.5494 -0.8348 -0.0350
vn -0.3573 -0.9327 -0.0493
vn -0.3002 -0.9524 -0.0529
vn -0.2984 -0.9023 -0.3112
vn -0.6065 -0.5963 -0.5259
vn -0.6561 -0.5090 -0.5572
vn 0.0542 -0.5309 -0.8457
vn 0.0505 -0.5406 -0.8397
vn 0.0559 -0.5261 -0.8486
vn 0.5626 -0.6120 -0.5558
vn 0.2562 -0.8920 -0.3724
vn 0.6202 -0.5243 -0.5835
vn 0.2956 -0.9539 -0.0521
vn 0.2273 -0.9150 0.3333
vn 0.4285 -0.6159 0.6611
vn 0.4603 -0.5276 0.7140
vn 0.2254 -0.9481 0.2244
vn 0.1986 -0.9594 0.2004
vn 0.2320 -0.9450 0.2304
vn 0.8212 0.3176 -0.4742
vn 0.9352 0.3133 0.1649
vn 0.0000 0.3124 0.9499
vn -0.6098 0.3163 0.7267
vn -0.3235 0.3247 -0.8888
vn -0.8192 0.3243 -0.4731
vn 0.4476 -0.8275 0.3391
vn 0.2554 -0.9653 0.0540
vn 0.1381 -0.9148 -0.3795
vn -0.0859 -0.9945 0.0594
vn 0.0761 -0.8755 0.4771
vn 0.2833 -0.9577 -0.0500
vn -0.7663 0.4264 -0.4805
vn -0.3405 0.4257 -0.8384
vn -0.5481 0.4163 0.7255
vn -0.0525 0.4112 0.9100
vn 0.8949 0.4174 0.1578
vn 0.7854 0.4214 -0.4534
vn -0.7627 0.3242 -0.5597
vn -0.4196 0.3238 -0.8480
vn -0.4665 0.3045 0.8304
vn -0.1918 0.3000 0.9345
vn 0.9308 0.3265 0.1641
vn 0.8175 0.3300 -0.4720
vn 0.8138 0.3419 -0.4699
vn 0.9264 0.3392 0.1634
vn -0.1053 0.3276 0.9389
vn -0.5323 0.3322 0.7786
vn -0.3749 0.3420 -0.8617
vn -0.7834 0.3430 -0.5183
vn -0.7930 0.3462 -0.5012
vn -0.3563 0.3451 -0.8683
vn -0.5580 0.3372 0.7582
vn -0.0693 0.3324 0.9406
vn 0.9266 0.3388 0.1634
vn 0.8139 0.3418 -0.4699
vn 0.7905 0.4084 -0.4564
vn 0.9006 0.4045 0.1588
vn -0.0605 0.3972 0.9158
vn -0.5465 0.4021 0.7346
vn -0.3467 0.4116 -0.8428
vn -0.7697 0.4123 -0.4874
vn 0.1401 -0.9059 0.3996
vn 0.3722 -0.9010 0.2231
vn 0.0137 -0.8771 -0.4802
vn 0.2883 -0.8812 -0.3746
vn -0.7320 -0.6725 0.1093
vn -0.5794 -0.8150 0.0117
vn -0.4691 -0.8803 0.0708
vn -0.6875 -0.7256 0.0295
vn 0.1771 -0.9156 -0.3610
vn 0.0957 -0.9148 -0.3924
vn 0.2690 -0.9298 0.2511
vn 0.1971 -0.9311 0.3070
vn 0.1878 -0.9512 0.2449
vn 0.2088 -0.9509 0.2283
vn 0.1040 -0.9422 -0.3186
vn 0.1248 -0.9423 -0.3105
vn -0.6204 -0.7843 0.0012
vn -0.3836 -0.9201 0.0796
vn -0.4135 -0.9017 0.1260
vn -0.6772 -0.7350 -0.0339
vn 0.0999 -0.9185 -0.3826
vn 0.1693 -0.9191 -0.3557
vn 0.2077 -0.9316 0.2982
vn 0.2592 -0.9310 0.2571
vn 0.2248 -0.9487 0.2223
vn 0.1796 -0.9491 0.2588
vn 0.1444 -0.9417 -0.3039
vn 0.0853 -0.9413 -0.3267
vn -0.6039 -0.7965 -0.0299
vn -0.3591 -0.9267 0.1106
vn -0.5190 -0.8253 0.2223
vn -0.5790 -0.8147 -0.0325
vn -0.2001 -0.9503 -0.2385
vn 0.0491 -0.5444 -0.8374
vn 0.1576 -0.9392 -0.3050
vn 0.1593 -0.9614 0.2243
vn 0.1940 -0.9612 0.1962
usemtl Bark
s 1
f 1//1 2//1 3//1
f 4//2 5//2 2//2
f 5//3 6//3 7//3
f 7//4 8//4 9//4
f 9//5 10//5 11//5
f 11//6 12//6 13//6
f 12//7 14//7 13//7
f 1//8 10//8 6//8
f 15//9 1//9 3//9
f 14//10 16//10 15//10
f 17//11 18//11 19//11
f 14//12 20//12 19//12
f 15//13 21//13 20//13
f 13//14 19//14 18//14
f 11//15 18//15 22//15
f 9//16 22//16 23//16
f 7//17 23//17 24//17
f 5//18 24//18 25//18
f 17//19 5//19 25//19
f 21//20 2//20 17//20
f 1//1 4//1 2//1
f 4//2 26//2 5//2
f 5//3 26//3 6//3
f 7//4 6//4 8//4
f 9//5 8//5 10//5
f 11//6 10//6 12//6
f 12//7 27//7 14//7
f 26//8 4//8 6//8
f 1//8 16//8 27//8
f 27//8 12//8 1//8
f 10//8 8//8 6//8
f 6//8 4//8 1//8
f 1//8 12//8 10//8
f 15//9 16//9 1//9
f 14//10 27//10 16//10
f 20//11 21//11 19//11
f 17//11 25//11 24//11
f 24//11 23//11 22//11
f 22//11 18//11 17//11
f 19//11 21//11 17//11
f 17//11 24//11 22//11
f 14//12 15//12 20//12
f 15//13 3//13 21//13
f 13//14 14//14 19//14
f 11//15 13//15 18//15
f 9//16 11//16 22//16
f 7//17 9//17 23//17
f 5//18 7//18 24//18
f 17//19 2//19 5//19
f 21//20 3//20 2//20
usemtl Leaves
f 28//21 29//21 30//21
f 29//22 31//23 32//24
f 31//25 33//26 32//27
f 34//28 35//29 33//29
f 35//30 36//31 37//32
f 36//33 38//34 37//35
f 38//36 39//36 40//36
f 28//8 41//8 34//8
f 42//37 30//38 43//39
f 40//40 42//41 43//42
f 44//43 45//44 46//45
f 47//46 48//47 49//48
f 48//49 50//50 49//51
f 51//52 52//52 47//52
f 53//53 51//54 54//55
f 55//56 53//57 54//58
f 56//59 57//59 55//59
f 58//60 56//61 59//62
f 60//63 58//64 59//65
f 61//66 60//66 50//66
f 62//67 63//68 64//69
f 63//70 65//71 64//72
f 66//73 67//73 62//73
f 68//74 66//75 69//76
f 70//77 68//78 69//79
f 71//80 72//80 70//80
f 73//81 71//82 74//83
f 75//84 73//85 74//86
f 76//87 75//87 65//87
f 77//88 78//88 79//88
f 78//89 80//90 81//91
f 80//92 82//93 81//94
f 82//95 83//95 84//95
f 84//96 85//97 86//98
f 85//99 87//100 86//101
f 87//102 88//102 89//102
f 90//103 79//104 91//105
f 89//106 90//107 91//108
f 92//109 93//110 94//111
f 93//112 95//113 94//114
f 96//115 97//115 92//115
f 98//116 96//117 99//118
f 100//119 98//120 99//121
f 101//122 102//122 100//122
f 103//123 101//124 104//125
f 105//126 103//127 104//128
f 106//129 105//129 95//129
f 107//130 108//130 109//130
f 108//131 110//132 111//133
f 110//134 112//135 111//136
f 112//137 113//137 114//137
f 114//138 115//139 116//140
f 115//141 117//142 116//143
f 117//144 118//144 119//144
f 120//145 109//146 121//147
f 119//148 120//149 121//150
f 40//151 63//152 67//153
f 63//154 30//155 76//156
f 38//157 67//157 122//157
f 68//158 38//159 122//160
f 35//161 68//162 72//163
f 123//164 35//164 72//164
f 73//165 33//166 123//167
f 124//168 32//169 73//170
f 76//171 29//171 124//171
f 77//172 75//172 125//172
f 125//173 74//174 80//175
f 80//176 71//177 126//178
f 126//179 70//179 83//179
f 70//180 85//181 83//182
f 85//183 66//184 127//185
f 66//186 88//186 127//186
f 90//187 65//188 77//189
f 62//190 90//191 88//192
f 89//193 93//194 97//195
f 93//196 79//197 106//198
f 87//199 97//199 128//199
f 98//200 87//201 128//202
f 84//203 98//204 102//205
f 129//206 84//206 102//206
f 103//207 82//208 129//209
f 130//210 81//211 103//212
f 106//213 78//213 130//213
f 107//214 105//214 131//214
f 131//215 104//216 110//217
f 110//218 101//219 132//220
f 132//221 100//221 113//221
f 100//222 115//223 113//224
f 115//225 96//226 133//227
f 96//228 118//228 133//228
f 120//229 95//230 107//231
f 92//232 120//233 118//234
f 119//235 48//236 52//237
f 48//238 109//239 61//240
f 117//241 52//241 134//241
f 53//242 117//243 134//244
f 114//245 53//246 57//247
f 135//248 114//248 57//248
f 58//249 112//250 135//251
f 136//252 111//253 58//254
f 61//255 108//255 136//255
f 46//256 60//256 137//256
f 60//257 44//258 137//259
f 44//260 56//261 138//262
f 138//263 55//264 139//265
f 55//266 45//267 139//268
f 54//269 140//270 45//271
f 51//272 141//272 140//272
f 142//273 50//274 46//275
f 47//276 142//277 141//278
f 28//21 143//21 29//21
f 29//22 143//279 31//23
f 31//25 34//280 33//26
f 34//28 41//28 35//29
f 35//30 41//281 36//31
f 36//33 144//282 38//34
f 38//36 144//36 39//36
f 31//8 143//8 34//8
f 28//8 42//8 36//8
f 39//8 144//8 36//8
f 36//8 41//8 28//8
f 34//8 143//8 28//8
f 42//8 39//8 36//8
f 42//37 28//283 30//38
f 40//40 39//284 42//41
f 142//285 46//45 141//286
f 137//287 44//43 46//45
f 138//288 139//289 45//44
f 45//44 140//290 141//286
f 141//286 46//45 45//44
f 44//43 138//288 45//44
f 47//46 52//291 48//47
f 48//49 61//292 50//50
f 51//52 134//52 52//52
f 53//53 134//293 51//54
f 55//56 57//294 53//57
f 56//59 135//59 57//59
f 58//60 135//295 56//61
f 60//63 136//296 58//64
f 61//66 136//66 60//66
f 62//67 67//297 63//68
f 63//70 76//298 65//71
f 66//73 122//73 67//73
f 68//74 122//299 66//75
f 70//77 72//300 68//78
f 71//80 123//80 72//80
f 73//81 123//301 71//82
f 75//84 124//302 73//85
f 76//87 124//87 75//87
f 77//88 125//88 78//88
f 78//89 125//303 80//90
f 80//92 126//304 82//93
f 82//95 126//95 83//95
f 84//96 83//305 85//97
f 85//99 127//306 87//100
f 87//102 127//102 88//102
f 90//103 77//307 79//104
f 89//106 88//308 90//107
f 92//109 97//309 93//110
f 93//112 106//310 95//113
f 96//115 128//115 97//115
f 98//116 128//311 96//117
f 100//119 102//312 98//120
f 101//122 129//122 102//122
f 103//123 129//313 101//124
f 105//126 130//314 103//127
f 106//129 130//129 105//129
f 107//130 131//130 108//130
f 108//131 131//315 110//132
f 110//134 132//316 112//135
f 112//137 132//137 113//137
f 114//138 113//317 115//139
f 115//141 133//318 117//142
f 117//144 133//144 118//144
f 120//145 107//319 109//146
f 119//148 118//320 120//149
f 40//151 43//321 63//152
f 63//154 43//322 30//155
f 38//157 40//157 67//157
f 68//158 37//323 38//159
f 35//161 37//324 68//162
f 123//164 33//164 35//164
f 73//165 32//325 33//166
f 124//168 29//326 32//169
f 76//171 30//171 29//171
f 77//172 65//172 75//172
f 125//173 75//327 74//174
f 80//176 74//328 71//177
f 126//179 71//179 70//179
f 70//180 69//329 85//181
f 85//183 69//330 66//184
f 66//186 62//186 88//186
f 90//187 64//331 65//188
f 62//190 64//332 90//191
f 89//193 91//333 93//194
f 93//196 91//334 79//197
f 87//199 89//199 97//199
f 98//200 86//335 87//201
f 84//203 86//336 98//204
f 129//206 82//206 84//206
f 103//207 81//337 82//208
f 130//210 78//338 81//211
f 106//213 79//213 78//213
f 107//214 95//214 105//214
f 131//215 105//339 104//216
f 110//218 104//340 101//219
f 132//221 101//221 100//221
f 100//222 99//341 115//223
f 115//225 99//342 96//226
f 96//228 92//228 118//228
f 120//229 94//343 95//230
f 92//232 94//344 120//233
f 119//235 121//345 48//236
f 48//238 121//346 109//239
f 117//241 119//241 52//241
f 53//242 116//347 117//243
f 114//245 116//348 53//246
f 135//248 112//248 114//248
f 58//249 111//349 112//250
f 136//252 108//350 111//253
f 61//255 109//255 108//255
f 46//256 50//256 60//256
f 60//257 59//351 44//258
f 44//260 59//352 56//261
f 138//263 56//353 55//264
f 55//266 54//354 45//267
f 54//269 51//355 140//270
f 51//272 47//272 141//272
f 142//273 49//356 50//274
f 47//276 49//357 142//277
